<svg width="9" height="12" viewBox="0 0 9 12" fill="none" xmlns="http://www.w3.org/2000/svg">
<path fill-rule="evenodd" clip-rule="evenodd" d="M4.5 1C2.55662 1 1 2.53463 1 4.39499C1 5.06049 1.22408 5.69508 1.57226 6.25206L1.57433 6.25539C2.00835 6.96195 2.83934 8.19772 3.56816 9.26561C3.92548 9.78917 4.2562 10.2694 4.5 10.6222C4.7438 10.2694 5.07452 9.78917 5.43184 9.26561C6.16066 8.19772 6.99167 6.96196 7.42568 6.25539L7.42773 6.25205C7.77591 5.69507 8 5.06049 8 4.39499C8 2.53463 6.44338 1 4.5 1ZM4.5 11.5L4.08964 11.7857L3.98142 11.6299C3.91202 11.5299 3.81194 11.3855 3.68911 11.2078C3.44346 10.8524 3.10668 10.3634 2.74219 9.82932C2.01637 8.76583 1.17224 7.51121 0.723235 6.78043C0.299557 6.1021 0 5.28675 0 4.39499C0 1.95743 2.02958 0 4.5 0C6.97042 0 9 1.95743 9 4.39499C9 5.28677 8.70043 6.10213 8.27674 6.78046C7.82774 7.51126 6.98361 8.76585 6.25781 9.82932C5.89332 10.3634 5.55654 10.8524 5.31089 11.2078C5.18806 11.3855 5.08798 11.5299 5.01858 11.6299L4.9108 11.785C4.91078 11.7851 4.91033 11.7857 4.5 11.5ZM4.5 11.5L4.9108 11.785C4.81732 11.9193 4.6636 12 4.5 12C4.3364 12 4.18312 11.9199 4.08964 11.7857L4.5 11.5Z" fill="white"/>
</svg>
